<svg width="24" height="24" viewBox="0 0 24 24" fill="none" xmlns="http://www.w3.org/2000/svg">
<g id="vuesax/outline/add">
<g id="add">
<path id="Vector" d="M16.773 8.28724L8.28777 16.7725C7.99785 17.0624 7.51702 17.0624 7.22711 16.7725C6.93719 16.4826 6.93719 16.0018 7.22711 15.7119L15.7124 7.22658C16.0023 6.93666 16.4831 6.93666 16.773 7.22658C17.063 7.51649 17.063 7.99732 16.773 8.28724Z" fill="white" fill-opacity="0.87"/>
<path id="Vector_2" d="M16.773 16.7734C16.4831 17.0633 16.0023 17.0633 15.7124 16.7734L7.22711 8.28814C6.93719 7.99823 6.93719 7.5174 7.22711 7.22748C7.51702 6.93757 7.99785 6.93757 8.28777 7.22748L16.773 15.7128C17.063 16.0027 17.063 16.4835 16.773 16.7734Z" fill="white" fill-opacity="0.87"/>
</g>
</g>
</svg>
