<svg width="48" height="48" viewBox="0 0 48 48" fill="none" xmlns="http://www.w3.org/2000/svg">
<path d="M17.54 31.5196C16.93 31.5196 16.36 31.3096 15.95 30.9196C15.43 30.4296 15.18 29.6896 15.27 28.8896L15.64 25.6496C15.71 25.0396 16.08 24.2296 16.51 23.7896L24.72 15.0996C26.77 12.9296 28.91 12.8696 31.08 14.9196C33.25 16.9696 33.31 19.1096 31.26 21.2796L23.05 29.9696C22.63 30.4196 21.85 30.8396 21.24 30.9396L18.02 31.4896C17.85 31.4996 17.7 31.5196 17.54 31.5196ZM27.93 14.9096C27.16 14.9096 26.49 15.3896 25.81 16.1096L17.6 24.8096C17.4 25.0196 17.17 25.5196 17.13 25.8096L16.76 29.0496C16.72 29.3796 16.8 29.6496 16.98 29.8196C17.16 29.9896 17.43 30.0496 17.76 29.9996L20.98 29.4496C21.27 29.3996 21.75 29.1396 21.95 28.9296L30.16 20.2396C31.4 18.9196 31.85 17.6996 30.04 15.9996C29.24 15.2296 28.55 14.9096 27.93 14.9096Z" fill="white" fill-opacity="0.87"/>
<path d="M29.3399 22.9498C29.3199 22.9498 29.2899 22.9498 29.2699 22.9498C26.1499 22.6398 23.6399 20.2698 23.1599 17.1698C23.0999 16.7598 23.3799 16.3798 23.7899 16.3098C24.1999 16.2498 24.5799 16.5298 24.6499 16.9398C25.0299 19.3598 26.9899 21.2198 29.4299 21.4598C29.8399 21.4998 30.1399 21.8698 30.0999 22.2798C30.0499 22.6598 29.7199 22.9498 29.3399 22.9498Z" fill="white" fill-opacity="0.87"/>
<path d="M33 34.75H15C14.59 34.75 14.25 34.41 14.25 34C14.25 33.59 14.59 33.25 15 33.25H33C33.41 33.25 33.75 33.59 33.75 34C33.75 34.41 33.41 34.75 33 34.75Z" fill="white" fill-opacity="0.87"/>
</svg>