<svg width="188" height="188" viewBox="0 0 188 188" fill="none" xmlns="http://www.w3.org/2000/svg">
<path d="M151.618 129.044H151.14V173.634H151.618V129.044Z" fill="#231F20"/>
<path d="M161.624 54.3643H161.146V166.962H161.624V54.3643Z" fill="#231F20"/>
<path d="M156.626 90.6919H156.148V173.633H156.626V90.6919Z" fill="#231F20"/>
<path d="M171.641 74.9238H171.163V160.534H171.641V74.9238Z" fill="#231F20"/>
<path d="M166.632 52.6738H166.154V168.274H166.632V52.6738Z" fill="#231F20"/>
<path d="M172.605 176.387C178.871 169.973 178.871 159.574 172.605 153.16C166.338 146.746 156.178 146.746 149.911 153.16C143.644 159.574 143.644 169.973 149.911 176.387C156.178 182.801 166.338 182.801 172.605 176.387Z" fill="#CCCCCC"/>
<path d="M151.03 146.924H171.499C172.585 146.924 173.476 148.136 173.476 149.626V153.862C173.476 155.353 172.585 156.565 171.499 156.565H151.03C149.944 156.565 149.053 155.353 149.053 153.862V149.626C149.053 148.136 149.944 146.924 151.03 146.924Z" fill="#CCCCCC"/>
<path d="M174.857 152.829H144.893V153.318H174.857V152.829Z" fill="#425AC2"/>
<path d="M156.517 51.4837C156.037 53.5931 155.416 55.6662 154.659 57.6885L155.441 55.8093L155.246 56.2652C154.265 58.118 153.99 60.2772 154.474 62.3254C154.741 63.3212 155.197 64.2534 155.816 65.0687C156.435 65.884 157.205 66.5663 158.082 67.0765C158.959 67.5868 159.925 67.9149 160.926 68.0423C161.927 68.1696 162.943 68.0935 163.916 67.8185C164.882 67.5697 165.789 67.1206 166.579 66.499C167.37 65.8775 168.027 65.0966 168.511 64.2046C169.674 61.4474 170.619 58.599 171.336 55.6869C171.604 54.6911 171.678 53.6508 171.554 52.6257C171.429 51.6006 171.109 50.6106 170.61 49.7122C170.112 48.8139 169.445 48.0249 168.649 47.3901C167.853 46.7554 166.942 46.2874 165.969 46.0129C164.004 45.4584 161.904 45.7257 160.131 46.7558C158.359 47.786 157.059 49.4947 156.517 51.506V51.4837Z" fill="#FFC1C1"/>
<path d="M132.279 125.407C133.863 129.808 136.581 133.689 140.145 136.638C143.328 139.44 148.651 137.872 150.835 134.626C153.388 130.811 152.03 126.475 148.858 123.684C150.542 125.163 148.782 123.495 148.456 123.106C148.13 122.716 146.804 120.659 147.924 122.461C147.163 121.218 146.553 119.885 146.109 118.491C144.773 114.421 139.243 113.165 135.831 114.855C131.714 116.89 130.942 121.304 132.279 125.363V125.407Z" fill="#FFC1C1"/>
<path d="M149.282 95.2063C149.159 98.0024 148.795 100.782 148.195 103.513C147.54 106.989 147.47 110.554 147.989 114.054C148.619 118.291 153.171 120.971 157.093 120.114C159.072 119.655 160.798 118.426 161.905 116.686C163.013 114.947 163.415 112.834 163.026 110.796C162.884 109.806 162.863 109.684 162.939 110.34C162.939 109.784 162.939 109.228 162.939 108.65C163.036 107.246 163.221 105.849 163.493 104.469C164.082 101.736 164.445 98.9577 164.579 96.1626C164.675 94.0875 163.976 92.0559 162.631 90.5003C161.286 88.9448 159.4 87.9881 157.376 87.834C153.367 87.5893 149.282 90.9141 149.238 95.2063H149.282Z" fill="#FFC1C1"/>
<path d="M169.848 79.4833C170.358 80.5952 170.869 81.6071 171.358 82.6857C171.564 83.1528 171.771 83.6309 171.966 84.0979C171.043 81.9407 171.966 84.0979 172.14 84.5872C172.729 86.537 173.982 88.2058 175.671 89.2908C176.557 89.818 177.537 90.1593 178.554 90.2948C179.571 90.4303 180.603 90.3574 181.592 90.0803C185.319 89.0351 188.491 84.4093 186.959 80.4062C185.808 77.3928 184.536 74.435 183.113 71.5105C181.234 67.6742 176.04 66.6178 172.596 68.6861C168.815 70.91 167.957 75.6136 169.848 79.4499V79.4833Z" fill="#FFC1C1"/>
<path d="M173.684 101.333C173.14 102.201 172.597 103.046 171.945 103.857L173.151 102.267C172.717 102.831 172.271 103.387 171.815 103.935C170.414 105.436 169.611 107.42 169.566 109.495C169.566 111.581 170.375 113.582 171.815 115.058C173.255 116.534 175.209 117.365 177.247 117.368C178.259 117.38 179.262 117.182 180.196 116.784C181.13 116.386 181.975 115.798 182.679 115.055C184.231 113.23 185.658 111.298 186.949 109.273C187.978 107.472 188.266 105.327 187.749 103.31C187.233 101.292 185.954 99.5673 184.195 98.5145C182.436 97.4616 180.34 97.1671 178.369 97.6958C176.398 98.2244 174.712 99.5329 173.684 101.333Z" fill="#FFC1C1"/>
<path d="M167.621 138.996C169.422 139.033 171.222 138.868 172.988 138.507L170.945 138.785C171.766 138.668 172.595 138.623 173.423 138.651C177.616 138.874 181.115 134.915 181.115 130.79C181.084 128.713 180.263 126.73 178.827 125.262C177.391 123.794 175.452 122.957 173.423 122.928C171.628 122.935 169.839 123.113 168.077 123.462L170.12 123.173C169.293 123.296 168.455 123.329 167.621 123.273C163.438 122.95 159.94 127.098 159.94 131.135C159.94 135.671 163.449 138.685 167.621 138.996Z" fill="#FFC1C1"/>
<path d="M139.427 70.6989C139.43 70.8731 139.381 71.044 139.288 71.1899C139.195 71.3358 139.062 71.4501 138.905 71.5183C138.749 71.5865 138.576 71.6055 138.408 71.5729C138.241 71.5403 138.087 71.4575 137.966 71.3351C137.845 71.2127 137.762 71.0562 137.728 70.8855C137.694 70.7148 137.711 70.5376 137.775 70.3764C137.84 70.2153 137.95 70.0774 138.091 69.9804C138.233 69.8834 138.399 69.8316 138.569 69.8315C138.795 69.8315 139.012 69.9226 139.172 70.0849C139.333 70.2472 139.425 70.4678 139.427 70.6989Z" fill="white"/>
<path d="M162.135 60.6578C162.135 60.8316 162.084 61.0014 161.99 61.1459C161.896 61.2903 161.762 61.4029 161.605 61.4694C161.448 61.5359 161.276 61.5533 161.109 61.5194C160.943 61.4855 160.79 61.4018 160.67 61.279C160.55 61.1561 160.468 60.9996 160.435 60.8292C160.402 60.6588 160.419 60.4822 160.484 60.3217C160.548 60.1611 160.659 60.0239 160.8 59.9274C160.941 59.8309 161.107 59.7794 161.277 59.7794C161.39 59.7779 161.502 59.7996 161.607 59.8432C161.711 59.8868 161.807 59.9515 161.887 60.0333C161.967 60.1152 162.03 60.2126 162.072 60.3199C162.115 60.4271 162.136 60.542 162.135 60.6578Z" fill="white"/>
<path d="M173.151 76.3809C173.146 76.5546 173.092 76.723 172.994 76.865C172.896 77.0069 172.759 77.1159 172.601 77.1783C172.442 77.2407 172.269 77.2536 172.104 77.2154C171.938 77.1772 171.788 77.0896 171.671 76.9637C171.554 76.8378 171.476 76.6792 171.447 76.508C171.418 76.3368 171.439 76.1607 171.508 76.002C171.577 75.8432 171.69 75.7089 171.834 75.616C171.977 75.5232 172.144 75.4759 172.314 75.4803C172.427 75.4831 172.538 75.5087 172.641 75.5556C172.744 75.6024 172.837 75.6695 172.915 75.7532C172.992 75.8368 173.053 75.9353 173.094 76.043C173.134 76.1508 173.154 76.2656 173.151 76.3809Z" fill="white"/>
<path d="M161.992 99.9436C161.995 100.118 161.946 100.29 161.852 100.436C161.759 100.582 161.625 100.696 161.468 100.764C161.31 100.832 161.137 100.85 160.969 100.817C160.802 100.783 160.648 100.699 160.527 100.576C160.407 100.452 160.325 100.295 160.292 100.123C160.259 99.9519 160.277 99.7743 160.343 99.6134C160.41 99.4524 160.521 99.3153 160.664 99.2196C160.807 99.124 160.974 99.074 161.145 99.0762C161.37 99.0762 161.585 99.1676 161.744 99.3303C161.903 99.4929 161.992 99.7135 161.992 99.9436Z" fill="white"/>
<path d="M181.853 107.572C181.855 107.746 181.806 107.918 181.713 108.064C181.619 108.21 181.485 108.324 181.328 108.392C181.171 108.46 180.997 108.478 180.83 108.445C180.662 108.411 180.509 108.327 180.388 108.204C180.267 108.08 180.185 107.923 180.152 107.751C180.12 107.58 180.138 107.402 180.204 107.241C180.27 107.08 180.382 106.943 180.525 106.848C180.667 106.752 180.835 106.702 181.006 106.704C181.23 106.704 181.446 106.796 181.605 106.958C181.764 107.121 181.853 107.341 181.853 107.572Z" fill="white"/>
<path d="M176.584 131.223C176.586 131.398 176.538 131.569 176.444 131.715C176.351 131.861 176.217 131.976 176.059 132.043C175.902 132.111 175.729 132.13 175.561 132.096C175.394 132.062 175.24 131.979 175.119 131.855C174.998 131.732 174.916 131.574 174.884 131.403C174.851 131.231 174.869 131.054 174.935 130.893C175.001 130.732 175.113 130.595 175.256 130.499C175.399 130.403 175.566 130.353 175.737 130.356C175.962 130.356 176.177 130.447 176.336 130.61C176.495 130.772 176.584 130.993 176.584 131.223Z" fill="white"/>
<path d="M141.688 126.631C141.717 126.799 141.697 126.973 141.63 127.13C141.563 127.287 141.452 127.42 141.311 127.513C141.17 127.605 141.006 127.653 140.839 127.65C140.671 127.647 140.509 127.594 140.371 127.496C140.233 127.399 140.127 127.262 140.065 127.102C140.004 126.943 139.99 126.769 140.025 126.601C140.06 126.434 140.143 126.281 140.263 126.161C140.383 126.042 140.534 125.961 140.699 125.93C140.921 125.891 141.148 125.943 141.333 126.074C141.518 126.205 141.645 126.405 141.688 126.631Z" fill="white"/>
<path d="M31.8909 79.1724H29.4138V134.493H31.8909V79.1724Z" fill="#CCCCCC"/>
<path d="M20.7324 84.209H18.2554V133.024H20.7324V84.209Z" fill="#CCCCCC"/>
<path d="M43.6678 87.7339H41.1907V136.549H43.6678V87.7339Z" fill="#CCCCCC"/>
<path d="M50.3715 131.234H12.3457C14.0425 134.408 16.4703 137.111 19.4185 139.107V181.362H43.3204V139.107C46.2607 137.108 48.6808 134.406 50.3715 131.234Z" fill="#C4C4C4"/>
<path d="M61.724 139.251H15.5498V139.741H61.724V139.251Z" fill="#FFC1C1"/>
<path d="M46.1333 58.4895C41.7875 48.9711 28.0222 47.6256 21.9489 59.6014C16.7883 69.7537 4.56576 66.1843 1.08912 75.6805C-5.11452 92.8047 16.7992 99.3764 26.0775 90.4807C32.4767 84.3427 40.6359 87.9899 47.8065 93.8166C59.3772 103.335 77.3471 83.0305 65.9828 73.5121C57.15 66.1176 51.4787 70.2207 46.1333 58.4895Z" fill="#FFC1C1"/>
<path d="M14.6482 119.615C12.6274 121.349 15.1697 125.986 20.2434 125.03C25.3172 124.074 27.9246 121.627 25.1216 118.981C22.3185 116.334 18.4834 116.323 14.6482 119.615Z" fill="#FFC1C1"/>
<path d="M28.9021 108.127C32.3679 101.633 37.6698 107.082 40.9726 108.739C47.6 112.075 48.6864 107.705 52.1739 109.484C55.6614 111.263 54.2273 115.967 46.7417 117.268C40.1469 118.502 25.3277 114.766 28.9021 108.127Z" fill="#FFC1C1"/>
<path d="M157.669 6.38281H41.1467C35.4104 6.38281 30.7603 11.1422 30.7603 17.0132V100.955C30.7603 106.826 35.4104 111.586 41.1467 111.586H157.669C163.405 111.586 168.055 106.826 168.055 100.955V17.0132C168.055 11.1422 163.405 6.38281 157.669 6.38281Z" fill="#A4B8EA"/>
<path d="M128.443 22.9287H41.4294V25.8309H128.443V22.9287Z" fill="white"/>
<path d="M128.443 46.0132H41.4294V48.9154H128.443V46.0132Z" fill="white"/>
<path d="M128.443 69.0864H41.4294V71.9887H128.443V69.0864Z" fill="white"/>
<path d="M128.443 92.1597H41.4294V95.0619H128.443V92.1597Z" fill="white"/>
<path d="M146.903 17.3022H137.983C136.699 17.3022 135.658 18.3676 135.658 19.6819V28.8111C135.658 30.1253 136.699 31.1907 137.983 31.1907H146.903C148.187 31.1907 149.228 30.1253 149.228 28.8111V19.6819C149.228 18.3676 148.187 17.3022 146.903 17.3022Z" fill="white"/>
<path d="M146.903 40.209H137.983C136.699 40.209 135.658 41.2744 135.658 42.5886V51.7178C135.658 53.032 136.699 54.0974 137.983 54.0974H146.903C148.187 54.0974 149.228 53.032 149.228 51.7178V42.5886C149.228 41.2744 148.187 40.209 146.903 40.209Z" fill="white"/>
<path d="M146.903 63.1265H137.983C136.699 63.1265 135.658 64.1918 135.658 65.5061V74.6353C135.658 75.9495 136.699 77.0149 137.983 77.0149H146.903C148.187 77.0149 149.228 75.9495 149.228 74.6353V65.5061C149.228 64.1918 148.187 63.1265 146.903 63.1265Z" fill="white"/>
<path d="M146.903 86.0439H137.983C136.699 86.0439 135.658 87.1093 135.658 88.4235V97.5528C135.658 98.867 136.699 99.9324 137.983 99.9324H146.903C148.187 99.9324 149.228 98.867 149.228 97.5528V88.4235C149.228 87.1093 148.187 86.0439 146.903 86.0439Z" fill="white"/>
<path d="M141.395 66.8563L135.11 73.2881L137.438 75.6705L143.722 69.2388L141.395 66.8563Z" fill="#FE958E"/>
<path d="M136.559 79.0163C138.015 78.5937 140.502 76.1808 140.111 75.0132C139.72 73.8456 138.808 70.5653 136.667 71.6773L132.843 74.3683L134.712 79.5167L136.559 79.0163Z" fill="#FFB3B6"/>
<path d="M70.7307 109.151H101.434L104.78 145.612L100.608 176.28H88.3421L93.3507 148.781C93.3507 148.781 89.2221 130.423 88.6354 123.851H84.5721L82.3992 149.271L71.9258 176.08H59.323L70.2744 147.069C70.2744 147.069 70.709 117.824 70.785 113.488C70.6915 112.044 70.6734 110.596 70.7307 109.151Z" fill="#FFC1C1"/>
<path d="M70.7313 109.15H101.434L105.27 67.4184C105.606 64.0158 102.391 61.0913 98.3055 61.0913H73.8603C69.7644 61.0913 66.5593 64.0158 66.8961 67.4184L70.7313 109.15Z" fill="#425AC2"/>
<path d="M86.235 65.4726C80.8027 65.4726 80.8027 61.6808 80.8027 60.7801V54.6643C80.8027 53.2632 82.8344 53.3855 84.0621 53.3855H87.9624C89.1684 53.3855 91.2218 54.4975 91.2218 55.9097V60.8246C91.2102 61.4707 91.07 62.1077 90.8095 62.6964C90.549 63.2852 90.1739 63.8133 89.707 64.2484C89.2401 64.6836 88.6914 65.0166 88.0944 65.2271C87.4974 65.4376 86.8647 65.5211 86.235 65.4726Z" fill="#E98896"/>
<path d="M94.5783 53.3741C93.0138 58.7893 88.5919 57.9665 83.3009 56.3652C80.8241 55.5416 78.7592 53.7611 77.5457 51.4027C76.3322 49.0444 76.066 46.2944 76.8037 43.7381C77.5413 41.1819 79.2247 39.0213 81.4954 37.7161C83.766 36.411 86.4448 36.0644 88.9613 36.7502C94.2524 38.3514 96.1428 47.9588 94.5783 53.3741Z" fill="#FFB3B6"/>
<path d="M105.411 66.0731L113.592 82.7526L132.648 73.9792C132.648 73.4343 137.157 78.0824 136.462 79.3389C135.375 81.3738 122.164 89.3466 115.178 94.9954C111.267 98.1533 101.685 85.1545 101.141 84.2204C100.261 82.7304 99.077 73.4899 98.9684 68.3415C98.9411 67.766 99.133 67.2021 99.5039 66.7686C99.8748 66.3351 100.396 66.0658 100.957 66.0175L102.771 62.6816C103.727 62.5371 105.063 65.1057 105.411 66.0731Z" fill="#425AC2"/>
<path d="M69.4269 62.459C69.4269 62.459 55.227 77.9598 50.2294 82.8413C47.4589 85.5323 50.2294 87.556 51.8047 89.5131C56.1505 95.0729 70.3505 105.081 70.3505 105.081L69.5682 96.5963L61.0178 86.3662C61.0178 86.3662 73.0448 76.8589 73.4468 76.1695C74.5333 74.3014 73.6206 66.084 73.6206 66.084L69.4269 62.459Z" fill="#425AC2"/>
<path d="M97.5989 176.202H91.6343V180.872H103.726C104.53 180.872 104.813 179.038 104.096 178.648L97.5989 176.202Z" fill="#FE958E"/>
<path d="M69.2534 176.202H63.2996V180.872H75.381C76.1849 180.872 76.4674 179.038 75.7612 178.648L69.2534 176.202Z" fill="#FE958E"/>
<path d="M103.249 73.1118H102.771V95.896H103.249V73.1118Z" fill="#FC6262"/>
<path d="M68.4112 74.1525L67.9341 74.1836L69.3308 96.6555L69.8079 96.6244L68.4112 74.1525Z" fill="#FC6262"/>
<path d="M141.383 66.8513L143.719 69.242L144.664 66.7512L144.034 66.0396L141.383 66.8513Z" fill="#FEE2E3"/>
<path d="M144.066 66.0288L144.696 66.7516C144.696 66.7516 145.587 65.8843 145.24 65.5396C144.892 65.1948 144.066 66.0288 144.066 66.0288Z" fill="#0E24A5"/>
<mask id="mask0_4_8688" style="mask-type:alpha" maskUnits="userSpaceOnUse" x="59" y="109" width="46" height="68">
<path d="M70.7307 109.151H101.434L104.78 145.612L100.608 176.28H88.3421L93.3507 148.781C93.3507 148.781 89.2221 130.423 88.6354 123.851H84.5721L82.3992 149.271L71.9258 176.08H59.323L70.2744 147.069C70.2744 147.069 70.709 117.824 70.785 113.488C70.6915 112.044 70.6734 110.596 70.7307 109.151Z" fill="#FFC1C1"/>
</mask>
<g mask="url(#mask0_4_8688)">
<path d="M109.105 111.33H71.0789V112.442H109.105V111.33Z" fill="#03053F"/>
<path d="M109.061 115.533H53.6521V116.779H109.061V115.533Z" fill="#03053F"/>
<path d="M109.061 119.903H53.6521V121.149H109.061V119.903Z" fill="#03053F"/>
<path d="M109.061 124.273H53.6521V125.519H109.061V124.273Z" fill="#03053F"/>
<path d="M109.061 128.644H53.6521V129.889H109.061V128.644Z" fill="#03053F"/>
<path d="M109.061 133.014H53.6521V134.259H109.061V133.014Z" fill="#03053F"/>
<path d="M109.061 137.383H53.6521V138.629H109.061V137.383Z" fill="#03053F"/>
<path d="M109.061 141.753H53.6521V142.999H109.061V141.753Z" fill="#03053F"/>
<path d="M109.061 146.124H53.6521V147.369H109.061V146.124Z" fill="#03053F"/>
<path d="M109.061 150.494H53.6521V151.739H109.061V150.494Z" fill="#03053F"/>
<path d="M109.061 154.864H53.6521V156.109H109.061V154.864Z" fill="#03053F"/>
<path d="M109.061 159.234H53.6521V160.479H109.061V159.234Z" fill="#03053F"/>
<path d="M109.061 163.604H53.6521V164.849H109.061V163.604Z" fill="#03053F"/>
<path d="M109.061 167.974H53.6521V169.219H109.061V167.974Z" fill="#03053F"/>
<path d="M109.061 172.344H53.6521V173.589H109.061V172.344Z" fill="#03053F"/>
</g>
<path d="M86.2783 49.4047C87.9514 48.6708 85.1919 45.9798 87.3648 44.4453C90.4612 42.2214 93.0903 41.1094 93.7205 37.0507C94.4267 32.6029 89.592 29.7451 88.7989 29.7451C88.0058 29.7451 90.4612 31.0461 87.7124 32.9921C85.4418 34.6266 75.4898 37.2954 74.9358 44.045C74.3817 50.7946 76.359 52.9407 78.9013 54.2862C81.4436 55.6317 78.1082 51.5174 80.1725 48.9154C82.2367 46.3134 85.1701 49.905 86.2783 49.4047Z" fill="#FE958E"/>
<path d="M138.215 21.7378L137.101 22.8779L142.348 28.2482L143.462 27.1081L138.215 21.7378Z" fill="#FE958E"/>
<path d="M146.574 21.787L141.327 27.1572L142.441 28.2973L147.688 22.9271L146.574 21.787Z" fill="#FE958E"/>
<path d="M138.221 44.5279L137.107 45.668L142.354 51.0382L143.468 49.8981L138.221 44.5279Z" fill="#FE958E"/>
<path d="M146.561 44.5697L141.314 49.9399L142.428 51.08L147.675 45.7098L146.561 44.5697Z" fill="#FE958E"/>
<path d="M51.2732 12.9989C51.259 13.5938 51.0181 14.1594 50.6019 14.5749C50.1857 14.9905 49.6273 15.223 49.0459 15.2228C48.4696 15.2228 47.917 14.9885 47.5095 14.5714C47.102 14.1544 46.873 13.5887 46.873 12.9989V2.27953C46.8657 1.98283 46.9166 1.68766 47.0226 1.41139C47.1285 1.13512 47.2874 0.883342 47.4899 0.670906C47.6924 0.45847 47.9344 0.289668 48.2016 0.174445C48.4688 0.0592209 48.7559 -9.26526e-05 49.0459 1.08635e-07C49.6366 1.08635e-07 50.2031 0.240167 50.6208 0.667661C51.0385 1.09516 51.2732 1.67496 51.2732 2.27953V12.9989Z" fill="#425AC2"/>
<path d="M154.801 12.9989C154.787 13.5843 154.553 14.1418 154.149 14.5558C153.744 14.9699 153.2 15.2087 152.628 15.2228C152.046 15.223 151.488 14.9905 151.072 14.5749C150.655 14.1594 150.415 13.5938 150.4 12.9989V2.27953C150.4 1.67496 150.635 1.09516 151.053 0.667661C151.47 0.240166 152.037 0 152.628 0C153.209 0.0145136 153.761 0.261072 154.168 0.687004C154.574 1.11294 154.801 1.68447 154.801 2.27953V12.9989Z" fill="#425AC2"/>
</svg>
