<svg width="20" height="20" viewBox="0 0 20 20" fill="none" xmlns="http://www.w3.org/2000/svg">
<path d="M10.4943 9.37836C10.3246 9.37836 10.1549 9.31584 10.0209 9.18186C9.76191 8.92284 9.76191 8.49412 10.0209 8.2351L17.345 0.911062C17.604 0.652042 18.0327 0.652042 18.2917 0.911062C18.5507 1.17008 18.5507 1.59881 18.2917 1.85783L10.9677 9.18186C10.8337 9.31584 10.664 9.37836 10.4943 9.37836Z" fill="white"/>
<path d="M18.5326 5.62699C18.1664 5.62699 17.8627 5.32332 17.8627 4.95711V1.33976H14.2453C13.8791 1.33976 13.5754 1.03608 13.5754 0.66988C13.5754 0.303679 13.8791 0 14.2453 0H18.5326C18.8988 0 19.2024 0.303679 19.2024 0.66988V4.95711C19.2024 5.32332 18.8988 5.62699 18.5326 5.62699Z" fill="white"/>
<path d="M12.2811 19.2032H6.9221C2.07216 19.2032 0 17.1311 0 12.2811V6.9221C0 2.07216 2.07216 0 6.9221 0H8.70844C9.07464 0 9.37832 0.303679 9.37832 0.66988C9.37832 1.03608 9.07464 1.33976 8.70844 1.33976H6.9221C2.80457 1.33976 1.33976 2.80457 1.33976 6.9221V12.2811C1.33976 16.3987 2.80457 17.8635 6.9221 17.8635H12.2811C16.3987 17.8635 17.8635 16.3987 17.8635 12.2811V10.4948C17.8635 10.1286 18.1672 9.82491 18.5334 9.82491C18.8996 9.82491 19.2032 10.1286 19.2032 10.4948V12.2811C19.2032 17.1311 17.1311 19.2032 12.2811 19.2032Z" fill="white"/>
</svg>
